<svg width="14" height="14" viewBox="0 0 14 14" fill="none" xmlns="http://www.w3.org/2000/svg">
<rect x="0.25" y="0.25" width="13.5" height="13.5" rx="1.75" fill="#2787F5" stroke="#2787F5" stroke-width="0.5"/>
<path d="M5.75002 8.66671L4.29152 7.27766C4.21363 7.20641 4.10951 7.16709 4.00152 7.16815C3.89353 7.16921 3.79029 7.21055 3.71396 7.28331C3.63762 7.35607 3.5943 7.45444 3.59328 7.55729C3.59226 7.66014 3.63364 7.75926 3.70852 7.83338L5.45552 9.49719C5.53363 9.57157 5.63956 9.61336 5.75002 9.61336C5.86048 9.61336 5.96641 9.57157 6.04452 9.49719L10.4585 5.29385C10.5359 5.22016 10.5794 5.12021 10.5794 5.016C10.5794 4.91178 10.5359 4.81183 10.4585 4.73814C10.3811 4.66445 10.2762 4.62305 10.1668 4.62305C10.0573 4.62305 9.95239 4.66445 9.87502 4.73814L5.75002 8.66671Z" fill="white" stroke="white" stroke-width="0.417"/>
</svg>
