<svg width="114" height="34" viewBox="0 0 114 34" fill="none" xmlns="http://www.w3.org/2000/svg">
<path d="M25.2983 3.66515C25.2983 2.19181 26.47 1 28.0321 1C29.5943 1 30.7659 2.14825 30.7659 3.57843C30.7659 5.09492 29.6377 6.28673 28.0321 6.28673C26.47 6.28673 25.2983 5.15985 25.2983 3.66515Z" fill="white" stroke="white"/>
<path d="M30.0526 10.3167H26.0171V32.7409H30.0526V10.3167Z" fill="white" stroke="white"/>
<path d="M50.3569 31.4401C49.142 32.5016 47.2978 32.9997 45.4754 32.9997C40.9841 32.9997 38.4239 30.5084 38.4239 25.9803V13.6742H34.6487V10.3375H38.4239V5.41943H42.4596V10.3375H48.8383V13.6742H42.4596V25.8287C42.4596 28.2333 43.7177 29.5985 45.9524 29.5985C47.1241 29.5985 48.2526 29.2085 49.0988 28.5366L50.3569 31.4401Z" fill="white" stroke="white"/>
<path d="M112.65 22.881H94.5761C95.0753 26.8242 98.2212 29.4458 102.648 29.4458C105.251 29.4458 107.442 28.5573 109.069 26.7375L111.304 29.3591C109.287 31.7205 106.227 32.9991 102.517 32.9991C95.3358 32.9991 90.5408 28.2108 90.5408 21.5375C90.5408 14.8863 95.2922 10.1199 101.715 10.1199C108.136 10.1199 112.715 14.7778 112.715 21.6678C112.736 21.9928 112.693 22.5127 112.65 22.881ZM94.5761 19.9778H108.853C108.441 16.208 105.62 13.5429 101.715 13.5429C97.8525 13.5429 95.0103 16.1644 94.5761 19.9778Z" fill="white" stroke="white"/>
<path d="M62.9442 10.2288C63.0092 10.2288 63.0743 10.2288 63.1393 10.2288C63.2047 10.2288 63.2697 10.2288 63.3348 10.2288C68.7587 10.2288 72.4475 13.3702 72.4475 19.9565V32.8692H68.4117V20.4332C68.4117 16.2302 66.5025 14.0849 63.1393 13.8901C59.516 13.8901 57.8673 13.8901 57.8673 13.8901V32.8692H53.8315V19.9565C53.8315 16.3165 53.8315 10.2288 53.8315 10.2288C53.8315 10.2288 60.514 10.2288 62.9442 10.2288Z" fill="white" stroke="white"/>
<path d="M77.9582 10.2288C77.8932 10.2288 77.8281 10.2288 77.7631 10.2288C77.6977 10.2288 77.6327 10.2288 77.5676 10.2288C76.0272 10.2288 72.7726 10.2288 70.6033 10.2288C72.0569 11.0084 73.2068 12.222 73.9443 13.8901C74.8123 13.8901 76.0708 13.8901 77.7413 13.8901C81.1041 14.0849 83.0137 16.2302 83.0137 20.4332V32.8692H87.0491V19.9565C87.0709 13.3702 83.3825 10.2288 77.9582 10.2288Z" fill="white" stroke="white"/>
<path d="M22.5664 10.3163H17.446L5.01386 26.2193V1H1V32.7406H5.01386H5.03555L22.5664 10.3163Z" fill="white" stroke="white"/>
<path d="M15.4947 23.2083L12.9128 26.3929L18.0115 32.7411H22.9583L15.4947 23.2083Z" fill="white" stroke="white"/>
</svg>
