<svg width="20" height="17" viewBox="0 0 20 17" fill="none" xmlns="http://www.w3.org/2000/svg">
<path d="M4.213 0.79697L6.19 2.77497L7.885 4.46797L9.917 6.50197H9.919L12.499 9.08097V9.08497L14.531 11.117C14.5314 11.116 14.5317 11.115 14.532 11.114L16.816 13.399L16.814 13.4L18.2 14.787C18.3813 14.9665 18.487 15.2085 18.4957 15.4635C18.5043 15.7185 18.4152 15.9671 18.2465 16.1586C18.0779 16.35 17.8424 16.4697 17.5884 16.4932C17.3343 16.5167 17.0809 16.4422 16.88 16.285L16.785 16.201L15.146 14.563C13.688 15.409 11.95 16 10 16C4 16 0 10.4 0 8.99997C0 8.10997 1.618 5.51997 4.34 3.75297L2.8 2.20997C2.61784 2.02137 2.51705 1.76877 2.51933 1.50657C2.5216 1.24437 2.62677 0.99356 2.81218 0.808152C2.99759 0.622744 3.2484 0.517575 3.5106 0.515297C3.7728 0.513018 4.0254 0.613812 4.214 0.795971L4.213 0.79697ZM5 8.99997C4.99998 9.9639 5.27859 10.9073 5.80228 11.7165C6.32598 12.5258 7.07244 13.1664 7.95178 13.5613C8.83112 13.9562 9.80585 14.0885 10.7586 13.9422C11.7114 13.7959 12.6016 13.3774 13.322 12.737L11.548 10.964C11.0672 11.3428 10.464 11.532 9.85298 11.4958C9.24193 11.4595 8.6654 11.2004 8.23268 10.7674C7.79996 10.3344 7.54113 9.75776 7.50525 9.14668C7.46937 8.53561 7.65893 7.9326 8.038 7.45197L6.263 5.67797C5.44784 6.59233 4.99819 7.77501 5 8.99997ZM10 1.99997C16 1.99997 20 7.59997 20 8.99997C20 9.55197 19.379 10.755 18.26 12.012L14.994 8.74697C14.9312 7.51 14.4115 6.34038 13.5356 5.46468C12.6597 4.58898 11.49 4.06953 10.253 4.00697L8.383 2.13697C8.91718 2.04587 9.45811 2.00004 10 1.99997Z" fill="#99A2AD"/>
</svg>
