<svg width="16" height="16" viewBox="0 0 16 16" fill="none" xmlns="http://www.w3.org/2000/svg">
<g clip-path="url(#clip0_0_164)">
<path d="M12.6667 5.33333V4.66667C12.6667 3.42899 12.175 2.242 11.2999 1.36684C10.4247 0.491665 9.23772 0 8.00004 0C6.76236 0 5.57538 0.491665 4.70021 1.36684C3.82504 2.242 3.33337 3.42899 3.33337 4.66667V5.33333H1.33337V14C1.33337 14.5304 1.54409 15.0391 1.91916 15.4142C2.29423 15.7893 2.80294 16 3.33337 16H12.6667C13.1971 16 13.7058 15.7893 14.0809 15.4142C14.456 15.0391 14.6667 14.5304 14.6667 14V5.33333H12.6667ZM8.66671 12H7.33337V9.33333H8.66671V12ZM11.3334 5.33333H4.66671V4.66667C4.66671 3.78261 5.0179 2.93477 5.64302 2.30964C6.26814 1.68452 7.11599 1.33333 8.00004 1.33333C8.8841 1.33333 9.73194 1.68452 10.3571 2.30964C10.9822 2.93477 11.3334 3.78261 11.3334 4.66667V5.33333Z" fill="#52B057"/>
</g>
<defs>
<clipPath id="clip0_0_164">
<rect width="16" height="16" fill="white"/>
</clipPath>
</defs>
</svg>
