<svg class="color" width="65" height="20" viewBox="0 0 65 20" fill="none" xmlns="http://www.w3.org/2000/svg">
<path class="color" d="M14.7029 2.49911C14.7029 1.67038 15.3636 1 16.2445 1C17.1254 1 17.7861 1.64588 17.7861 2.45034C17.7861 3.30334 17.1498 3.97372 16.2445 3.97372C15.3636 3.97372 14.7029 3.33987 14.7029 2.49911Z" fill="black" stroke="black"/>
<path d="M17.3823 6.24023H15.1067V18.8536H17.3823V6.24023Z" fill="black" stroke="black"/>
<path d="M28.834 18.1224C28.1489 18.7195 27.109 18.9997 26.0813 18.9997C23.5487 18.9997 22.1049 17.5983 22.1049 15.0513V8.12929H19.9761V6.25245H22.1049V3.48608H24.3806V6.25245H27.9776V8.12929H24.3806V14.966C24.3806 16.3186 25.0901 17.0865 26.3503 17.0865C27.011 17.0865 27.6474 16.8672 28.1245 16.4892L28.834 18.1224Z" fill="black" stroke="black"/>
<path d="M63.9601 13.3088H53.7684C54.0499 15.5269 55.8239 17.0015 58.3199 17.0015C59.7881 17.0015 61.0236 16.5017 61.9413 15.4781L63.2015 16.9527C62.0638 18.281 60.3385 19.0001 58.2464 19.0001C54.1969 19.0001 51.4929 16.3068 51.4929 12.5531C51.4929 8.81193 54.1723 6.13086 57.7938 6.13086C61.4152 6.13086 63.9968 8.7509 63.9968 12.6264C64.0091 12.8093 63.9845 13.1017 63.9601 13.3088ZM53.7684 11.6759H61.819C61.5867 9.55536 59.996 8.05625 57.7938 8.05625C55.616 8.05625 54.0133 9.53086 53.7684 11.6759Z" fill="black" stroke="black"/>
<path d="M35.9309 6.19189C35.9676 6.19189 36.0042 6.19189 36.0409 6.19189C36.0778 6.19189 36.1145 6.19189 36.1511 6.19189C39.2097 6.19189 41.2898 7.95893 41.2898 11.6636V18.9269H39.014V11.9318C39.014 9.56762 37.9374 8.36093 36.0409 8.25136C33.9977 8.25136 33.068 8.25136 33.068 8.25136V18.9269H30.7922V11.6636C30.7922 9.61617 30.7922 6.19189 30.7922 6.19189C30.7922 6.19189 34.5605 6.19189 35.9309 6.19189Z" fill="black" stroke="black"/>
<path d="M44.3965 6.19189C44.3598 6.19189 44.3231 6.19189 44.2865 6.19189C44.2496 6.19189 44.2129 6.19189 44.1762 6.19189C43.3076 6.19189 41.4723 6.19189 40.249 6.19189C41.0687 6.63042 41.7171 7.31305 42.133 8.25136C42.6225 8.25136 43.3322 8.25136 44.2742 8.25136C46.1705 8.36093 47.2473 9.56762 47.2473 11.9318V18.9269H49.5228V11.6636C49.5351 7.95893 47.4553 6.19189 44.3965 6.19189Z" fill="black" stroke="black"/>
<path d="M13.1614 6.24031H10.2739L3.26342 15.1855V1H1V18.8537H3.26342H3.27565L13.1614 6.24031Z" fill="black" stroke="black"/>
<path d="M9.17298 13.4915L7.71704 15.2828L10.5922 18.8536H13.3817L9.17298 13.4915Z" fill="black" stroke="black"/>
</svg>