<svg width="10" height="5" viewBox="0 0 10 5" fill="none" xmlns="http://www.w3.org/2000/svg">
<path d="M8.91422 0.789248C8.85999 0.734573 8.79548 0.691177 8.72439 0.661561C8.65331 0.631946 8.57706 0.616699 8.50005 0.616699C8.42305 0.616699 8.3468 0.631946 8.27572 0.661561C8.20463 0.691177 8.14012 0.734573 8.08589 0.789248L5.41422 3.46092C5.35999 3.51559 5.29548 3.55899 5.22439 3.5886C5.15331 3.61822 5.07706 3.63346 5.00005 3.63346C4.92305 3.63346 4.8468 3.61822 4.77572 3.5886C4.70463 3.55899 4.64012 3.51559 4.58589 3.46092L1.91422 0.789248C1.85999 0.734573 1.79548 0.691177 1.72439 0.661561C1.65331 0.631946 1.57706 0.616699 1.50006 0.616699C1.42305 0.616699 1.3468 0.631946 1.27572 0.661561C1.20463 0.691177 1.14012 0.734573 1.08589 0.789248C0.977242 0.898543 0.91626 1.04639 0.91626 1.2005C0.91626 1.35461 0.977242 1.50245 1.08589 1.61175L3.76339 4.28925C4.09151 4.61697 4.5363 4.80104 5.00005 4.80104C5.46381 4.80104 5.9086 4.61697 6.23672 4.28925L8.91422 1.61175C9.02287 1.50245 9.08385 1.35461 9.08385 1.2005C9.08385 1.04639 9.02287 0.898543 8.91422 0.789248Z" fill="#99A2AE"/>
</svg>
