<svg width="24" height="24" viewBox="0 0 24 24" fill="none" xmlns="http://www.w3.org/2000/svg">
<g clip-path="url(#clip0_0_568)">
<path d="M19.3826 6.79264C18.572 2.72551 14.6179 0.0856805 10.5507 0.896287C7.576 1.48918 5.25001 3.8137 4.65528 6.78806C1.77155 7.1204 -0.29699 9.72745 0.0351632 12.6114C0.340949 15.2655 2.58894 17.2679 5.26063 17.2661H9.01502C9.42976 17.2661 9.76594 16.9299 9.76594 16.5152C9.76594 16.1004 9.42976 15.7642 9.01502 15.7642H5.26063C3.18696 15.752 1.51612 14.0612 1.52821 11.9877C1.54047 9.91404 3.23127 8.24302 5.30494 8.25529C5.68763 8.25529 6.00916 7.96744 6.05128 7.58695C6.4325 4.29142 9.41328 1.92882 12.709 2.31004C15.4797 2.63048 17.6655 4.8162 17.9859 7.58695C18.0489 7.97422 18.3843 8.25785 18.7766 8.25529C20.8502 8.25529 22.5311 9.93619 22.5311 12.0099C22.5311 14.0833 20.8502 15.7642 18.7766 15.7642H15.0222C14.6074 15.7642 14.2712 16.1004 14.2712 16.5152C14.2712 16.9299 14.6074 17.2661 15.0222 17.2661H18.7767C21.6795 17.2479 24.0181 14.88 24.0002 11.9773C23.9837 9.33378 22.0065 7.11381 19.3826 6.79264Z" fill="white"/>
<path d="M14.6726 18.8055L12.769 20.7096V11.259C12.769 10.8442 12.4328 10.5081 12.0183 10.5081C11.6035 10.5081 11.2674 10.8442 11.2674 11.259V20.7096L9.36379 18.8055C9.07577 18.507 8.60024 18.4988 8.30196 18.787C8.00368 19.075 7.99545 19.5504 8.28347 19.8486C8.2897 19.855 8.29574 19.8611 8.30196 19.8671L11.4865 23.0524C11.5561 23.1218 11.6385 23.1769 11.7291 23.2147C11.9139 23.2928 12.1225 23.2928 12.3074 23.2147C12.398 23.1769 12.4804 23.1218 12.5498 23.0524L15.7344 19.8671C16.0327 19.5791 16.0409 19.1038 15.7529 18.8055C15.4647 18.5072 14.9893 18.499 14.6911 18.787C14.6848 18.793 14.6786 18.7991 14.6726 18.8055Z" fill="white"/>
</g>
<defs>
<clipPath id="clip0_0_568">
<rect width="24" height="24" fill="white"/>
</clipPath>
</defs>
</svg>
