<svg width="20" height="14" viewBox="0 0 20 14" fill="none" xmlns="http://www.w3.org/2000/svg">
<path d="M10 0C16 0 20 5.6 20 7C20 8.4 16 14 10 14C4 14 0 8.4 0 7C0 5.6 4 0 10 0ZM10 2C8.67392 2 7.40215 2.52678 6.46447 3.46447C5.52678 4.40215 5 5.67392 5 7C5 8.32608 5.52678 9.59785 6.46447 10.5355C7.40215 11.4732 8.67392 12 10 12C11.3261 12 12.5979 11.4732 13.5355 10.5355C14.4732 9.59785 15 8.32608 15 7C15 5.67392 14.4732 4.40215 13.5355 3.46447C12.5979 2.52678 11.3261 2 10 2ZM10.001 4.5C10.664 4.5 11.2999 4.76339 11.7688 5.23223C12.2376 5.70107 12.501 6.33696 12.501 7C12.501 7.66304 12.2376 8.29893 11.7688 8.76777C11.2999 9.23661 10.664 9.5 10.001 9.5C9.33796 9.5 8.70207 9.23661 8.23323 8.76777C7.76439 8.29893 7.501 7.66304 7.501 7C7.501 6.33696 7.76439 5.70107 8.23323 5.23223C8.70207 4.76339 9.33796 4.5 10.001 4.5Z" fill="#99A2AD"/>
</svg>
